<svg width="70" height="70" viewBox="0 0 70 70" fill="none" xmlns="http://www.w3.org/2000/svg">
<rect width="70" height="70" rx="12" fill="white"/>
<defs>
<clipPath id="paint0_diamond_7538_293_clip_path"><rect width="70" height="70" rx="12"/></clipPath>
<linearGradient id="paint0_diamond_7538_293" x1="0" y1="0" x2="70" y2="70" gradientUnits="userSpaceOnUse">
<stop stop-color="#C3F73A"/>
<stop offset="1" stop-color="#0044F1"/>
</linearGradient>
</defs>
<rect width="70" height="70" rx="12" fill="url(#paint0_diamond_7538_293)"/>
<path d="M38.8413 28.668C41.9145 29.2149 45.1527 29.735 49.2076 29.9616L40.2117 45.2437C47.243 44.587 52.3345 42.3141 52.4557 39.4027C52.525 37.7358 50.9532 36.1419 48.2921 34.851L50.1348 31.7205C53.2972 32.7009 55.7298 33.5785 57.0546 34.1105C61.3292 36.178 63.8519 38.7253 63.7412 41.3875C63.4923 47.3696 50.0413 51.6668 33.6974 50.9854C17.3536 50.3039 4.30596 44.9019 4.55477 38.9198C4.71408 35.091 14.4118 33.365 24.6489 32.452V33.536C20.2539 34.5858 15.9693 36.0704 15.8941 37.8783C15.7414 41.5501 23.5514 44.8682 33.4288 45.3714L36.2617 36.6288C32.2352 37.3176 31.2986 37.6142 26.3402 37.4075V33.1529C26.3401 33.1529 26.3401 33.153 26.34 33.153V32.315C27.8091 32.3762 29.0844 32.4131 30.2049 32.4054H30.2048C32.6438 32.3885 34.3496 32.1593 35.7252 31.5036H35.725C36.9144 30.9366 37.8567 30.0508 38.8127 28.708H38.8127C38.8222 28.6947 38.8318 28.6814 38.8413 28.668ZM8.29915 20.7274C8.84651 18.0281 22.0795 18.4387 37.856 21.6447C53.6325 24.8507 65.9783 29.6379 65.4312 32.3373C64.7878 34.798 55.423 32.7905 50.7204 30.7257L51.1542 29.9888C53.8759 29.9285 54.1741 29.3891 54.2202 29.1615C54.5057 27.7529 47.0454 25.0479 37.557 23.1197C28.0686 21.1916 20.1451 20.7705 19.8595 22.1791C19.5743 23.5878 27.0346 26.2927 36.5227 28.2208C36.6784 28.2524 36.8337 28.2843 36.9886 28.3164C36.0588 29.4654 35.1866 30.0219 33.9883 30.3389C33.4321 30.486 32.797 30.584 32.0428 30.6428C29.898 30.1238 28.0872 29.6563 27.0054 29.3646C15.7261 26.4052 7.86 22.8939 8.29915 20.7274Z" fill="white"/>
</svg>
